<svg xmlns="http://www.w3.org/2000/svg" xmlns:xlink="http://www.w3.org/1999/xlink" version="1.1" x="0px" y="0px" viewBox="0 0 100 125" enable-background="new 0 0 100 100" xml:space="preserve">
  <path fill="none" d="M39.865 36.081c0 5.588 4.546 10.133 10.133 10.133 5.59 0 10.137-4.546 10.137-10.133 0-5.59-4.547-10.137-10.137-10.137C44.411 25.944 39.865 30.491 39.865 36.081z"/>
  <path d="M72.959 76.206l-6.899-8.264c-0.851-1.014-2.096-1.6-3.423-1.6h-4.228 -1.221 -1.077c-0.096 0.166-0.192 0.332-0.289 0.501 -0.309 0.534-0.625 1.082-0.938 1.627h7.754c0.692 0 1.344 0.305 1.788 0.837l6.899 8.264c0.596 0.713 0.716 1.639 0.323 2.476 -0.394 0.841-1.181 1.341-2.11 1.341H30.461c-0.926 0-1.71-0.497-2.107-1.334 -0.394-0.837-0.277-1.763 0.312-2.476l6.874-8.321c0.61-0.734 0.685-0.787 1.138-0.787h7.616 0.818c-0.314-0.545-0.629-1.093-0.939-1.628 -0.097-0.169-0.193-0.334-0.289-0.5h-7.206c-1.49 0-2.114 0.759-2.777 1.561l-6.874 8.321c-1.11 1.344-1.341 3.16-0.596 4.739 0.741 1.575 2.288 2.554 4.029 2.554h39.075c1.749 0 3.295-0.982 4.036-2.564C74.314 79.366 74.08 77.55 72.959 76.206z"/>
  <path d="M42.319 61.628c0.614 1.068 1.628 2.823 2.72 4.714 0.404 0.699 0.819 1.419 1.227 2.128 1.926 3.334 3.731 6.459 3.731 6.459s1.805-3.125 3.731-6.459c0.408-0.709 0.823-1.429 1.227-2.128 1.092-1.89 2.107-3.646 2.72-4.714 1.784-3.089 8.172-13.857 9.066-15.365 0.018-0.028 0.035-0.06 0.053-0.089 0.032-0.053 0.053-0.092 0.053-0.092 1.742-2.93 2.745-6.345 2.745-10.002 0-10.821-8.775-19.596-19.596-19.596s-19.593 8.775-19.593 19.596c0 1.71 0.22 3.37 0.631 4.951 0.415 1.582 1.018 3.086 1.788 4.483 0 0 0.025 0.043 0.067 0.114 0.156 0.28 0.319 0.557 0.489 0.826C35.162 49.466 40.716 58.851 42.319 61.628zM49.998 24.944c6.15 0 11.137 4.987 11.137 11.137 0 6.147-4.987 11.133-11.137 11.133s-11.133-4.987-11.133-11.133C38.865 29.93 43.848 24.944 49.998 24.944z"/>
  <path fill="#000000" d="M49.998 47.214c6.15 0 11.137-4.987 11.137-11.133 0-6.15-4.987-11.137-11.137-11.137S38.865 29.93 38.865 36.081C38.865 42.227 43.848 47.214 49.998 47.214zM60.135 36.081c0 5.588-4.547 10.133-10.137 10.133 -5.588 0-10.133-4.546-10.133-10.133 0-5.59 4.546-10.137 10.133-10.137C55.588 25.944 60.135 30.491 60.135 36.081z"/>
</svg>
